<svg width="1440" height="1024" viewBox="0 0 1440 1024" fill="none" xmlns="http://www.w3.org/2000/svg">
<g clip-path="url(#clip0_106_2483)">
<rect width="1440" height="1024" rx="8" fill="white"/>
<path d="M622.938 471.625H574.56V326.932L622.938 301.065V471.625Z" fill="#2C3E50"/>
<mask id="mask0_106_2483" style="mask-type:luminance" maskUnits="userSpaceOnUse" x="641" y="232" width="53" height="284">
<path d="M641.344 232H693.994V515.31H641.344V232Z" fill="white"/>
</mask>
<g mask="url(#mask0_106_2483)">
<path d="M692.012 514.74H643.635V257.951L692.012 232.084V514.74Z" fill="#2C3E50"/>
</g>
<path d="M761.077 488.873H712.7V326.932L761.077 301.065V488.873Z" fill="#3498DB"/>
<path d="M830.152 437.139H781.775V266.57L830.152 240.703V437.139Z" fill="#3498DB"/>
<path d="M412.7 724.98H373.88L358.64 685.14H288.32L273.86 724.98H236L304.58 549H342.14L412.7 724.98ZM299.18 655.44H347.3L323 590.04L299.18 655.44Z" fill="#2C3E50"/>
<path d="M547.888 549V724.98H516.388V706.32H515.908C510.508 714.525 504.148 720.18 496.828 723.3C489.538 726.375 482.878 727.92 476.848 727.92C467.488 727.92 458.743 725.37 450.628 720.3C442.543 715.23 436.003 707.61 431.008 697.44C425.998 687.285 423.508 674.85 423.508 660.12C423.508 645.84 425.923 633.81 430.768 624C435.598 614.16 442.063 606.825 450.148 601.98C458.263 597.15 467.248 594.72 477.088 594.72C491.488 594.72 503.848 600.63 514.168 612.42V549H547.888ZM458.128 661.56C458.128 675.645 460.783 685.77 466.108 691.92C471.463 698.085 477.748 701.16 484.948 701.16C489.388 701.16 493.843 700.02 498.328 697.74C502.843 695.43 506.743 691.065 510.028 684.66C512.938 678.945 514.408 670.26 514.408 658.62C514.408 646.35 511.783 636.93 506.548 630.36C501.298 623.805 494.428 620.52 485.908 620.52H484.708C475.183 621 468.358 625.14 464.248 632.94C460.168 640.74 458.128 650.28 458.128 661.56Z" fill="#2C3E50"/>
<path d="M616.94 618.3H686.48V549H721.88V724.98H686.48V648.06H616.94V724.98H581.54V549H616.94V618.3Z" fill="#3498DB"/>
<path d="M808.348 594.72C824.578 594.72 836.623 596.82 844.468 601.02C852.343 605.19 857.308 610.665 859.348 617.46C861.388 624.27 862.318 633.24 862.168 644.4L861.928 681.48C861.763 693.12 862.168 701.565 863.128 706.8C864.118 712.05 866.188 718.11 869.308 724.98H836.128C835.318 723.18 833.848 718.53 831.688 711C825.643 716.88 819.388 721.185 812.908 723.9C806.428 726.57 799.498 727.92 792.148 727.92C779.548 727.92 769.348 724.44 761.548 717.48C753.748 710.52 749.848 701.46 749.848 690.3C749.848 680.985 752.188 673.59 756.868 668.1C761.548 662.625 767.248 658.665 773.968 656.22C780.688 653.745 788.623 651.6 797.788 649.8C811.858 647.16 822.268 644.55 828.988 641.94V636.48C828.988 630.93 827.338 626.88 824.068 624.36C820.828 621.81 814.843 620.52 806.128 620.52C799.438 620.52 794.458 621.885 791.188 624.6C787.903 627.285 785.443 631.245 783.808 636.48L753.328 630.84C756.598 618.405 762.508 609.285 771.028 603.48C779.548 597.645 791.983 594.72 808.348 594.72ZM807.868 669.18L802.228 670.44C789.778 673.05 783.568 678.45 783.568 686.64C783.568 691.56 785.323 695.7 788.848 699.06C792.358 702.42 796.828 704.1 802.228 704.1C806.623 704.1 811.048 702.96 815.488 700.68C819.928 698.37 823.363 695.325 825.808 691.56C827.923 688.125 828.988 682.23 828.988 673.86V663.78C822.628 665.745 815.578 667.545 807.868 669.18Z" fill="#3498DB"/>
<path d="M935.142 681H935.682L957.282 597.66H989.982L1010.86 681H1011.34L1035.46 597.66H1068.64L1027.84 724.98H995.382L973.782 642.9H973.242L951.882 724.98H919.182L878.622 597.66H911.562L935.142 681Z" fill="#3498DB"/>
<path d="M1119.01 642.42L1158.55 597.66H1200.07L1156.57 644.1L1203.01 724.98H1166.65L1134.73 667.74L1119.01 684.18V724.98H1085.29V549H1119.01V642.42Z" fill="#3498DB"/>
</g>
<defs>
<clipPath id="clip0_106_2483">
<rect width="1440" height="1024" rx="8" fill="white"/>
</clipPath>
</defs>
</svg>
